<mxfile host="app.diagrams.net" agent="Mozilla/5.0 (Macintosh; Intel Mac OS X 10_15_7) AppleWebKit/605.1.15 (KHTML, like Gecko) Version/17.6 Safari/605.1.15" version="24.7.16">
  <diagram name="Page-1" id="cM00RsA2b5zES7nH-5cb">
    <mxGraphModel dx="1868" dy="1580" grid="0" gridSize="10" guides="1" tooltips="1" connect="1" arrows="1" fold="1" page="0" pageScale="1" pageWidth="850" pageHeight="1100" math="0" shadow="0">
      <root>
        <mxCell id="0" />
        <mxCell id="1" parent="0" />
        <mxCell id="KyBrxR12UiJV65W_V3dX-1" value="HeroInterface&amp;nbsp;" style="swimlane;fontStyle=0;childLayout=stackLayout;horizontal=1;startSize=26;fillColor=none;horizontalStack=0;resizeParent=1;resizeParentMax=0;resizeLast=0;collapsible=1;marginBottom=0;whiteSpace=wrap;html=1;" vertex="1" parent="1">
          <mxGeometry x="315" y="-163" width="158" height="182" as="geometry" />
        </mxCell>
        <mxCell id="KyBrxR12UiJV65W_V3dX-2" value="&lt;div&gt;+int getDEX()&lt;/div&gt;" style="text;strokeColor=none;fillColor=none;align=left;verticalAlign=top;spacingLeft=4;spacingRight=4;overflow=hidden;rotatable=0;points=[[0,0.5],[1,0.5]];portConstraint=eastwest;whiteSpace=wrap;html=1;" vertex="1" parent="KyBrxR12UiJV65W_V3dX-1">
          <mxGeometry y="26" width="158" height="26" as="geometry" />
        </mxCell>
        <mxCell id="KyBrxR12UiJV65W_V3dX-3" value="+int getINT()" style="text;strokeColor=none;fillColor=none;align=left;verticalAlign=top;spacingLeft=4;spacingRight=4;overflow=hidden;rotatable=0;points=[[0,0.5],[1,0.5]];portConstraint=eastwest;whiteSpace=wrap;html=1;" vertex="1" parent="KyBrxR12UiJV65W_V3dX-1">
          <mxGeometry y="52" width="158" height="26" as="geometry" />
        </mxCell>
        <mxCell id="KyBrxR12UiJV65W_V3dX-4" value="+int getSTR()&lt;div&gt;&lt;br&gt;&lt;/div&gt;" style="text;strokeColor=none;fillColor=none;align=left;verticalAlign=top;spacingLeft=4;spacingRight=4;overflow=hidden;rotatable=0;points=[[0,0.5],[1,0.5]];portConstraint=eastwest;whiteSpace=wrap;html=1;" vertex="1" parent="KyBrxR12UiJV65W_V3dX-1">
          <mxGeometry y="78" width="158" height="26" as="geometry" />
        </mxCell>
        <mxCell id="KyBrxR12UiJV65W_V3dX-10" value="+String getRaceName()" style="text;strokeColor=none;fillColor=none;align=left;verticalAlign=top;spacingLeft=4;spacingRight=4;overflow=hidden;rotatable=0;points=[[0,0.5],[1,0.5]];portConstraint=eastwest;whiteSpace=wrap;html=1;" vertex="1" parent="KyBrxR12UiJV65W_V3dX-1">
          <mxGeometry y="104" width="158" height="26" as="geometry" />
        </mxCell>
        <mxCell id="KyBrxR12UiJV65W_V3dX-8" value="+String getJobName()" style="text;strokeColor=none;fillColor=none;align=left;verticalAlign=top;spacingLeft=4;spacingRight=4;overflow=hidden;rotatable=0;points=[[0,0.5],[1,0.5]];portConstraint=eastwest;whiteSpace=wrap;html=1;" vertex="1" parent="KyBrxR12UiJV65W_V3dX-1">
          <mxGeometry y="130" width="158" height="26" as="geometry" />
        </mxCell>
        <mxCell id="KyBrxR12UiJV65W_V3dX-11" value="+int Attack(int Val)" style="text;strokeColor=none;fillColor=none;align=left;verticalAlign=top;spacingLeft=4;spacingRight=4;overflow=hidden;rotatable=0;points=[[0,0.5],[1,0.5]];portConstraint=eastwest;whiteSpace=wrap;html=1;" vertex="1" parent="KyBrxR12UiJV65W_V3dX-1">
          <mxGeometry y="156" width="158" height="26" as="geometry" />
        </mxCell>
        <mxCell id="KyBrxR12UiJV65W_V3dX-12" value="HeroFactory" style="swimlane;fontStyle=0;childLayout=stackLayout;horizontal=1;startSize=26;fillColor=none;horizontalStack=0;resizeParent=1;resizeParentMax=0;resizeLast=0;collapsible=1;marginBottom=0;whiteSpace=wrap;html=1;" vertex="1" parent="1">
          <mxGeometry x="710" y="-98" width="204" height="52" as="geometry" />
        </mxCell>
        <mxCell id="KyBrxR12UiJV65W_V3dX-13" value="+createHero (String race, String job)" style="text;strokeColor=none;fillColor=none;align=left;verticalAlign=top;spacingLeft=4;spacingRight=4;overflow=hidden;rotatable=0;points=[[0,0.5],[1,0.5]];portConstraint=eastwest;whiteSpace=wrap;html=1;" vertex="1" parent="KyBrxR12UiJV65W_V3dX-12">
          <mxGeometry y="26" width="204" height="26" as="geometry" />
        </mxCell>
        <mxCell id="KyBrxR12UiJV65W_V3dX-16" value="" style="endArrow=classic;html=1;rounded=0;fontSize=12;startSize=8;endSize=8;curved=1;entryX=1;entryY=0.5;entryDx=0;entryDy=0;" edge="1" parent="1" target="KyBrxR12UiJV65W_V3dX-4">
          <mxGeometry relative="1" as="geometry">
            <mxPoint x="710" y="-72" as="sourcePoint" />
            <mxPoint x="662" y="-67" as="targetPoint" />
          </mxGeometry>
        </mxCell>
        <mxCell id="KyBrxR12UiJV65W_V3dX-17" value="Creates" style="edgeLabel;resizable=0;html=1;fontSize=12;;align=center;verticalAlign=middle;" connectable="0" vertex="1" parent="KyBrxR12UiJV65W_V3dX-16">
          <mxGeometry relative="1" as="geometry">
            <mxPoint x="6" as="offset" />
          </mxGeometry>
        </mxCell>
        <mxCell id="KyBrxR12UiJV65W_V3dX-18" value="Race" style="swimlane;fontStyle=0;childLayout=stackLayout;horizontal=1;startSize=26;fillColor=none;horizontalStack=0;resizeParent=1;resizeParentMax=0;resizeLast=0;collapsible=1;marginBottom=0;whiteSpace=wrap;html=1;" vertex="1" parent="1">
          <mxGeometry x="227" y="176" width="140" height="78" as="geometry" />
        </mxCell>
        <mxCell id="KyBrxR12UiJV65W_V3dX-19" value="+ field: type" style="text;strokeColor=none;fillColor=none;align=left;verticalAlign=top;spacingLeft=4;spacingRight=4;overflow=hidden;rotatable=0;points=[[0,0.5],[1,0.5]];portConstraint=eastwest;whiteSpace=wrap;html=1;" vertex="1" parent="KyBrxR12UiJV65W_V3dX-18">
          <mxGeometry y="26" width="140" height="26" as="geometry" />
        </mxCell>
        <mxCell id="KyBrxR12UiJV65W_V3dX-20" value="+ field: type" style="text;strokeColor=none;fillColor=none;align=left;verticalAlign=top;spacingLeft=4;spacingRight=4;overflow=hidden;rotatable=0;points=[[0,0.5],[1,0.5]];portConstraint=eastwest;whiteSpace=wrap;html=1;" vertex="1" parent="KyBrxR12UiJV65W_V3dX-18">
          <mxGeometry y="52" width="140" height="26" as="geometry" />
        </mxCell>
        <mxCell id="KyBrxR12UiJV65W_V3dX-22" value="Job" style="swimlane;fontStyle=0;childLayout=stackLayout;horizontal=1;startSize=26;fillColor=none;horizontalStack=0;resizeParent=1;resizeParentMax=0;resizeLast=0;collapsible=1;marginBottom=0;whiteSpace=wrap;html=1;" vertex="1" parent="1">
          <mxGeometry x="726" y="176" width="140" height="78" as="geometry" />
        </mxCell>
        <mxCell id="KyBrxR12UiJV65W_V3dX-23" value="+ field: type" style="text;strokeColor=none;fillColor=none;align=left;verticalAlign=top;spacingLeft=4;spacingRight=4;overflow=hidden;rotatable=0;points=[[0,0.5],[1,0.5]];portConstraint=eastwest;whiteSpace=wrap;html=1;" vertex="1" parent="KyBrxR12UiJV65W_V3dX-22">
          <mxGeometry y="26" width="140" height="26" as="geometry" />
        </mxCell>
        <mxCell id="KyBrxR12UiJV65W_V3dX-24" value="+ field: type" style="text;strokeColor=none;fillColor=none;align=left;verticalAlign=top;spacingLeft=4;spacingRight=4;overflow=hidden;rotatable=0;points=[[0,0.5],[1,0.5]];portConstraint=eastwest;whiteSpace=wrap;html=1;" vertex="1" parent="KyBrxR12UiJV65W_V3dX-22">
          <mxGeometry y="52" width="140" height="26" as="geometry" />
        </mxCell>
        <mxCell id="KyBrxR12UiJV65W_V3dX-26" value="Elf" style="swimlane;fontStyle=0;childLayout=stackLayout;horizontal=1;startSize=26;fillColor=none;horizontalStack=0;resizeParent=1;resizeParentMax=0;resizeLast=0;collapsible=1;marginBottom=0;whiteSpace=wrap;html=1;" vertex="1" parent="1">
          <mxGeometry x="76" y="323" width="140" height="78" as="geometry" />
        </mxCell>
        <mxCell id="KyBrxR12UiJV65W_V3dX-27" value="+int getIDEX()" style="text;strokeColor=none;fillColor=none;align=left;verticalAlign=top;spacingLeft=4;spacingRight=4;overflow=hidden;rotatable=0;points=[[0,0.5],[1,0.5]];portConstraint=eastwest;whiteSpace=wrap;html=1;" vertex="1" parent="KyBrxR12UiJV65W_V3dX-26">
          <mxGeometry y="26" width="140" height="26" as="geometry" />
        </mxCell>
        <mxCell id="KyBrxR12UiJV65W_V3dX-28" value="+job.attack()" style="text;strokeColor=none;fillColor=none;align=left;verticalAlign=top;spacingLeft=4;spacingRight=4;overflow=hidden;rotatable=0;points=[[0,0.5],[1,0.5]];portConstraint=eastwest;whiteSpace=wrap;html=1;" vertex="1" parent="KyBrxR12UiJV65W_V3dX-26">
          <mxGeometry y="52" width="140" height="26" as="geometry" />
        </mxCell>
        <mxCell id="KyBrxR12UiJV65W_V3dX-30" value="Dwarf" style="swimlane;fontStyle=0;childLayout=stackLayout;horizontal=1;startSize=26;fillColor=none;horizontalStack=0;resizeParent=1;resizeParentMax=0;resizeLast=0;collapsible=1;marginBottom=0;whiteSpace=wrap;html=1;" vertex="1" parent="1">
          <mxGeometry x="227" y="323" width="140" height="78" as="geometry" />
        </mxCell>
        <mxCell id="KyBrxR12UiJV65W_V3dX-31" value="+int getSTR()" style="text;strokeColor=none;fillColor=none;align=left;verticalAlign=top;spacingLeft=4;spacingRight=4;overflow=hidden;rotatable=0;points=[[0,0.5],[1,0.5]];portConstraint=eastwest;whiteSpace=wrap;html=1;" vertex="1" parent="KyBrxR12UiJV65W_V3dX-30">
          <mxGeometry y="26" width="140" height="26" as="geometry" />
        </mxCell>
        <mxCell id="KyBrxR12UiJV65W_V3dX-32" value="+job.attack()" style="text;strokeColor=none;fillColor=none;align=left;verticalAlign=top;spacingLeft=4;spacingRight=4;overflow=hidden;rotatable=0;points=[[0,0.5],[1,0.5]];portConstraint=eastwest;whiteSpace=wrap;html=1;" vertex="1" parent="KyBrxR12UiJV65W_V3dX-30">
          <mxGeometry y="52" width="140" height="26" as="geometry" />
        </mxCell>
        <mxCell id="KyBrxR12UiJV65W_V3dX-34" value="Robot" style="swimlane;fontStyle=0;childLayout=stackLayout;horizontal=1;startSize=26;fillColor=none;horizontalStack=0;resizeParent=1;resizeParentMax=0;resizeLast=0;collapsible=1;marginBottom=0;whiteSpace=wrap;html=1;" vertex="1" parent="1">
          <mxGeometry x="378" y="323" width="140" height="78" as="geometry" />
        </mxCell>
        <mxCell id="KyBrxR12UiJV65W_V3dX-35" value="+int getINT()" style="text;strokeColor=none;fillColor=none;align=left;verticalAlign=top;spacingLeft=4;spacingRight=4;overflow=hidden;rotatable=0;points=[[0,0.5],[1,0.5]];portConstraint=eastwest;whiteSpace=wrap;html=1;" vertex="1" parent="KyBrxR12UiJV65W_V3dX-34">
          <mxGeometry y="26" width="140" height="26" as="geometry" />
        </mxCell>
        <UserObject label="&lt;span style=&quot;caret-color: rgb(0, 0, 0); color: rgb(0, 0, 0); font-family: Helvetica; font-size: 12px; font-style: normal; font-variant-caps: normal; font-weight: 400; letter-spacing: normal; orphans: auto; text-align: left; text-indent: 0px; text-transform: none; white-space: normal; widows: auto; word-spacing: 0px; -webkit-tap-highlight-color: rgba(26, 26, 26, 0.3); -webkit-text-size-adjust: none; -webkit-text-stroke-width: 0px; background-color: rgb(255, 255, 255); text-decoration: none; display: inline !important; float: none;&quot;&gt;+job.attack()&lt;/span&gt;" link="&lt;span style=&quot;caret-color: rgb(0, 0, 0); color: rgb(0, 0, 0); font-family: Helvetica; font-size: 12px; font-style: normal; font-variant-caps: normal; font-weight: 400; letter-spacing: normal; orphans: auto; text-align: left; text-indent: 0px; text-transform: none; white-space: normal; widows: auto; word-spacing: 0px; -webkit-tap-highlight-color: rgba(26, 26, 26, 0.3); -webkit-text-size-adjust: none; -webkit-text-stroke-width: 0px; background-color: rgb(255, 255, 255); text-decoration: none; display: inline !important; float: none;&quot;&gt;+job.attack()&lt;/span&gt;" id="KyBrxR12UiJV65W_V3dX-36">
          <mxCell style="text;strokeColor=none;fillColor=none;align=left;verticalAlign=top;spacingLeft=4;spacingRight=4;overflow=hidden;rotatable=0;points=[[0,0.5],[1,0.5]];portConstraint=eastwest;whiteSpace=wrap;html=1;" vertex="1" parent="KyBrxR12UiJV65W_V3dX-34">
            <mxGeometry y="52" width="140" height="26" as="geometry" />
          </mxCell>
        </UserObject>
        <mxCell id="KyBrxR12UiJV65W_V3dX-38" value="Archer" style="swimlane;fontStyle=0;childLayout=stackLayout;horizontal=1;startSize=26;fillColor=none;horizontalStack=0;resizeParent=1;resizeParentMax=0;resizeLast=0;collapsible=1;marginBottom=0;whiteSpace=wrap;html=1;" vertex="1" parent="1">
          <mxGeometry x="580" y="323" width="140" height="67" as="geometry" />
        </mxCell>
        <mxCell id="KyBrxR12UiJV65W_V3dX-39" value="+int attack(DEX, INT, STR, Val)" style="text;strokeColor=none;fillColor=none;align=left;verticalAlign=top;spacingLeft=4;spacingRight=4;overflow=hidden;rotatable=0;points=[[0,0.5],[1,0.5]];portConstraint=eastwest;whiteSpace=wrap;html=1;" vertex="1" parent="KyBrxR12UiJV65W_V3dX-38">
          <mxGeometry y="26" width="140" height="41" as="geometry" />
        </mxCell>
        <mxCell id="KyBrxR12UiJV65W_V3dX-42" value="Warrior" style="swimlane;fontStyle=0;childLayout=stackLayout;horizontal=1;startSize=26;fillColor=none;horizontalStack=0;resizeParent=1;resizeParentMax=0;resizeLast=0;collapsible=1;marginBottom=0;whiteSpace=wrap;html=1;" vertex="1" parent="1">
          <mxGeometry x="731" y="323" width="140" height="68" as="geometry" />
        </mxCell>
        <mxCell id="KyBrxR12UiJV65W_V3dX-43" value="+int attack(DEX, INT, STR, Val)" style="text;strokeColor=none;fillColor=none;align=left;verticalAlign=top;spacingLeft=4;spacingRight=4;overflow=hidden;rotatable=0;points=[[0,0.5],[1,0.5]];portConstraint=eastwest;whiteSpace=wrap;html=1;" vertex="1" parent="KyBrxR12UiJV65W_V3dX-42">
          <mxGeometry y="26" width="140" height="42" as="geometry" />
        </mxCell>
        <mxCell id="KyBrxR12UiJV65W_V3dX-46" value="Mage" style="swimlane;fontStyle=0;childLayout=stackLayout;horizontal=1;startSize=26;fillColor=none;horizontalStack=0;resizeParent=1;resizeParentMax=0;resizeLast=0;collapsible=1;marginBottom=0;whiteSpace=wrap;html=1;" vertex="1" parent="1">
          <mxGeometry x="880" y="323" width="140" height="66" as="geometry" />
        </mxCell>
        <mxCell id="KyBrxR12UiJV65W_V3dX-47" value="+int attack(DEX, INT, STR, Val)" style="text;strokeColor=none;fillColor=none;align=left;verticalAlign=top;spacingLeft=4;spacingRight=4;overflow=hidden;rotatable=0;points=[[0,0.5],[1,0.5]];portConstraint=eastwest;whiteSpace=wrap;html=1;" vertex="1" parent="KyBrxR12UiJV65W_V3dX-46">
          <mxGeometry y="26" width="140" height="40" as="geometry" />
        </mxCell>
        <mxCell id="KyBrxR12UiJV65W_V3dX-50" value="" style="endArrow=classic;html=1;rounded=0;fontSize=12;startSize=8;endSize=8;curved=1;exitX=1;exitY=0.5;exitDx=0;exitDy=0;entryX=0;entryY=0.5;entryDx=0;entryDy=0;" edge="1" parent="1" source="KyBrxR12UiJV65W_V3dX-19" target="KyBrxR12UiJV65W_V3dX-23">
          <mxGeometry relative="1" as="geometry">
            <mxPoint x="580" y="218" as="sourcePoint" />
            <mxPoint x="680" y="218" as="targetPoint" />
          </mxGeometry>
        </mxCell>
        <mxCell id="KyBrxR12UiJV65W_V3dX-51" value="HasA&amp;nbsp;" style="edgeLabel;resizable=0;html=1;fontSize=12;;align=center;verticalAlign=middle;" connectable="0" vertex="1" parent="KyBrxR12UiJV65W_V3dX-50">
          <mxGeometry relative="1" as="geometry" />
        </mxCell>
        <mxCell id="KyBrxR12UiJV65W_V3dX-52" value="" style="endArrow=classic;html=1;rounded=0;fontSize=12;startSize=8;endSize=8;curved=1;entryX=0.5;entryY=0;entryDx=0;entryDy=0;" edge="1" parent="1" target="KyBrxR12UiJV65W_V3dX-34">
          <mxGeometry relative="1" as="geometry">
            <mxPoint x="292" y="254" as="sourcePoint" />
            <mxPoint x="638" y="430" as="targetPoint" />
          </mxGeometry>
        </mxCell>
        <mxCell id="KyBrxR12UiJV65W_V3dX-53" value="Creates&amp;nbsp;" style="edgeLabel;resizable=0;html=1;fontSize=12;;align=center;verticalAlign=middle;" connectable="0" vertex="1" parent="KyBrxR12UiJV65W_V3dX-52">
          <mxGeometry relative="1" as="geometry" />
        </mxCell>
        <mxCell id="KyBrxR12UiJV65W_V3dX-54" value="" style="endArrow=classic;html=1;rounded=0;fontSize=12;startSize=8;endSize=8;curved=1;entryX=0.5;entryY=0;entryDx=0;entryDy=0;" edge="1" parent="1" target="KyBrxR12UiJV65W_V3dX-30">
          <mxGeometry relative="1" as="geometry">
            <mxPoint x="292" y="254" as="sourcePoint" />
            <mxPoint x="638" y="430" as="targetPoint" />
          </mxGeometry>
        </mxCell>
        <mxCell id="KyBrxR12UiJV65W_V3dX-55" value="Creates" style="edgeLabel;resizable=0;html=1;fontSize=12;;align=center;verticalAlign=middle;" connectable="0" vertex="1" parent="KyBrxR12UiJV65W_V3dX-54">
          <mxGeometry relative="1" as="geometry" />
        </mxCell>
        <mxCell id="KyBrxR12UiJV65W_V3dX-56" value="" style="endArrow=classic;html=1;rounded=0;fontSize=12;startSize=8;endSize=8;curved=1;entryX=0.5;entryY=0;entryDx=0;entryDy=0;" edge="1" parent="1" target="KyBrxR12UiJV65W_V3dX-26">
          <mxGeometry relative="1" as="geometry">
            <mxPoint x="292" y="254" as="sourcePoint" />
            <mxPoint x="638" y="430" as="targetPoint" />
          </mxGeometry>
        </mxCell>
        <mxCell id="KyBrxR12UiJV65W_V3dX-57" value="Creates" style="edgeLabel;resizable=0;html=1;fontSize=12;;align=center;verticalAlign=middle;" connectable="0" vertex="1" parent="KyBrxR12UiJV65W_V3dX-56">
          <mxGeometry relative="1" as="geometry" />
        </mxCell>
        <mxCell id="KyBrxR12UiJV65W_V3dX-60" value="" style="endArrow=classic;html=1;rounded=0;fontSize=12;startSize=8;endSize=8;curved=1;entryX=0.5;entryY=0;entryDx=0;entryDy=0;" edge="1" parent="1" target="KyBrxR12UiJV65W_V3dX-38">
          <mxGeometry relative="1" as="geometry">
            <mxPoint x="790" y="254" as="sourcePoint" />
            <mxPoint x="680" y="268" as="targetPoint" />
          </mxGeometry>
        </mxCell>
        <mxCell id="KyBrxR12UiJV65W_V3dX-61" value="Creates" style="edgeLabel;resizable=0;html=1;fontSize=12;;align=center;verticalAlign=middle;" connectable="0" vertex="1" parent="KyBrxR12UiJV65W_V3dX-60">
          <mxGeometry relative="1" as="geometry" />
        </mxCell>
        <mxCell id="KyBrxR12UiJV65W_V3dX-62" value="" style="endArrow=classic;html=1;rounded=0;fontSize=12;startSize=8;endSize=8;curved=1;entryX=0.5;entryY=0;entryDx=0;entryDy=0;" edge="1" parent="1" target="KyBrxR12UiJV65W_V3dX-42">
          <mxGeometry relative="1" as="geometry">
            <mxPoint x="790" y="254" as="sourcePoint" />
            <mxPoint x="850" y="276" as="targetPoint" />
          </mxGeometry>
        </mxCell>
        <mxCell id="KyBrxR12UiJV65W_V3dX-63" value="Creates" style="edgeLabel;resizable=0;html=1;fontSize=12;;align=center;verticalAlign=middle;" connectable="0" vertex="1" parent="KyBrxR12UiJV65W_V3dX-62">
          <mxGeometry relative="1" as="geometry" />
        </mxCell>
        <mxCell id="KyBrxR12UiJV65W_V3dX-64" value="" style="endArrow=classic;html=1;rounded=0;fontSize=12;startSize=8;endSize=8;curved=1;entryX=0.5;entryY=0;entryDx=0;entryDy=0;" edge="1" parent="1" target="KyBrxR12UiJV65W_V3dX-46">
          <mxGeometry relative="1" as="geometry">
            <mxPoint x="790" y="254" as="sourcePoint" />
            <mxPoint x="1040" y="272" as="targetPoint" />
          </mxGeometry>
        </mxCell>
        <mxCell id="KyBrxR12UiJV65W_V3dX-65" value="Creates" style="edgeLabel;resizable=0;html=1;fontSize=12;;align=center;verticalAlign=middle;" connectable="0" vertex="1" parent="KyBrxR12UiJV65W_V3dX-64">
          <mxGeometry relative="1" as="geometry" />
        </mxCell>
        <mxCell id="KyBrxR12UiJV65W_V3dX-67" value="" style="endArrow=classic;html=1;rounded=0;fontSize=12;startSize=8;endSize=8;curved=1;exitX=0.5;exitY=0;exitDx=0;exitDy=0;" edge="1" parent="1" source="KyBrxR12UiJV65W_V3dX-18">
          <mxGeometry relative="1" as="geometry">
            <mxPoint x="447" y="242" as="sourcePoint" />
            <mxPoint x="388" y="19" as="targetPoint" />
          </mxGeometry>
        </mxCell>
        <mxCell id="KyBrxR12UiJV65W_V3dX-68" value="Implements" style="edgeLabel;resizable=0;html=1;fontSize=12;;align=center;verticalAlign=middle;" connectable="0" vertex="1" parent="KyBrxR12UiJV65W_V3dX-67">
          <mxGeometry relative="1" as="geometry">
            <mxPoint x="-6" y="12" as="offset" />
          </mxGeometry>
        </mxCell>
        <mxCell id="KyBrxR12UiJV65W_V3dX-70" value="" style="endArrow=classic;html=1;rounded=0;fontSize=12;startSize=8;endSize=8;curved=1;exitX=0.5;exitY=1;exitDx=0;exitDy=0;" edge="1" parent="1" source="KyBrxR12UiJV65W_V3dX-12">
          <mxGeometry relative="1" as="geometry">
            <mxPoint x="612" y="22" as="sourcePoint" />
            <mxPoint x="299" y="175" as="targetPoint" />
          </mxGeometry>
        </mxCell>
        <mxCell id="KyBrxR12UiJV65W_V3dX-71" value="Creates" style="edgeLabel;resizable=0;html=1;fontSize=12;;align=center;verticalAlign=middle;" connectable="0" vertex="1" parent="KyBrxR12UiJV65W_V3dX-70">
          <mxGeometry relative="1" as="geometry" />
        </mxCell>
      </root>
    </mxGraphModel>
  </diagram>
</mxfile>
